<?xml version="1.0" encoding="UTF-8" standalone="no"?>
<!-- Created with Inkscape (http://www.inkscape.org/) -->

<svg
   xmlns:dc="http://purl.org/dc/elements/1.1/"
   xmlns:cc="http://creativecommons.org/ns#"
   xmlns:rdf="http://www.w3.org/1999/02/22-rdf-syntax-ns#"
   xmlns:svg="http://www.w3.org/2000/svg"
   xmlns="http://www.w3.org/2000/svg"
   xmlns:sodipodi="http://sodipodi.sourceforge.net/DTD/sodipodi-0.dtd"
   xmlns:inkscape="http://www.inkscape.org/namespaces/inkscape"
   version="1.1"
   id="svg3843"
   width="100"
   height="100"
   viewBox="0 0 99.999999 100"
   sodipodi:docname="red-star-clipart.svg"
   inkscape:version="0.92.4 (5da689c313, 2019-01-14)">
  <title
     id="title4764">TheOldStarInnLogo_8pt</title>
  <metadata
     id="metadata3849">
    <rdf:RDF>
      <cc:Work
         rdf:about="">
        <dc:format>image/svg+xml</dc:format>
        <dc:type
           rdf:resource="http://purl.org/dc/dcmitype/StillImage" />
        <dc:title>TheOldStarInnLogo_8pt</dc:title>
      </cc:Work>
    </rdf:RDF>
  </metadata>
  <defs
     id="defs3847" />
  <sodipodi:namedview
     pagecolor="#ffffff"
     bordercolor="#666666"
     borderopacity="1"
     objecttolerance="10"
     gridtolerance="10"
     guidetolerance="10"
     inkscape:pageopacity="0"
     inkscape:pageshadow="2"
     inkscape:window-width="1600"
     inkscape:window-height="837"
     id="namedview3845"
     showgrid="false"
     inkscape:zoom="0.84879288"
     inkscape:cx="202.3375"
     inkscape:cy="-247.9772"
     inkscape:window-x="-8"
     inkscape:window-y="-8"
     inkscape:window-maximized="1"
     inkscape:current-layer="svg3843" />
  <path
     style="fill:none;stroke-width:1.17814374"
     d="m 219.27467,411.91639 c -7.33179,-3.44264 -13.27435,-6.02329 -13.99181,-6.07618 -0.66697,-0.0492 -7.08157,-2.5584 -12.37051,-4.83907 -1.94394,-0.83824 -9.00129,-3.66525 -15.68302,-6.28224 -6.68172,-2.61698 -13.83894,-5.50756 -15.90494,-6.42351 -2.066,-0.91594 -6.93734,-2.88684 -10.82522,-4.37976 -3.88787,-1.49292 -7.57252,-3.13862 -8.1881,-3.65711 -0.61558,-0.51848 -1.74105,-0.9427 -2.50106,-0.9427 -0.76,0 -3.96749,-1.16397 -7.12776,-2.5866 -3.16028,-1.42264 -6.27612,-2.70561 -6.92409,-2.85106 -1.75513,-0.39395 -44.025864,-17.53149 -49.482041,-20.06116 l -4.712574,-2.18491 8.836077,-0.71822 8.836078,-0.71822 -10.900534,0.12783 c -5.995294,0.0703 -10.899317,-0.2698 -10.897829,-0.75579 0.0015,-0.48598 72.105103,-0.8836 160.230253,-0.8836 88.12515,0 160.22787,0.39762 160.22827,0.8836 4e-4,0.48599 -2.78296,0.79632 -6.18525,0.68963 -5.70093,-0.17878 -5.81646,-0.13251 -1.47341,0.59012 4.63853,0.77179 4.4164,0.90405 -14.13773,8.41777 -10.36766,4.19851 -19.11538,7.68854 -19.43937,7.7556 -0.32399,0.0671 -1.91448,0.68356 -3.53443,1.36997 -1.61995,0.68641 -8.51209,3.46954 -15.31587,6.18474 -6.80378,2.71519 -13.43084,5.39428 -14.72679,5.95353 -1.29596,0.55925 -5.2722,2.16894 -8.83608,3.5771 -3.56389,1.40815 -8.07029,3.25073 -10.01422,4.09461 -1.94394,0.84388 -13.0774,5.33389 -24.74102,9.97781 -11.66362,4.64392 -22.79708,9.11219 -24.74102,9.92951 -6.88845,2.89619 -11.7916,4.75775 -12.56687,4.77121 -0.43198,0.008 -1.18304,0.41125 -1.66903,0.89724 -1.48928,1.48927 -5.53155,0.82031 -11.2401,-1.86014 z"
     id="path3883"
     inkscape:connector-curvature="0" />
  <path
     style="fill:none;stroke-width:1.17814374"
     d="m 381.20536,342.4092 c -2.05943,-0.76068 -4.13591,-1.78067 -4.6144,-2.26666 -0.47849,-0.48598 -1.50947,-0.8836 -2.29108,-0.8836 -0.7816,0 -4.00677,-1.17051 -7.16703,-2.60113 -3.16028,-1.43062 -6.01103,-2.64445 -6.33502,-2.69741 -1.75631,-0.28705 -14.87776,-5.63041 -15.89064,-6.47102 -0.65585,-0.54431 -1.6187,-0.96737 -2.13968,-0.94014 -0.52098,0.0272 -4.23213,-1.31675 -8.247,-2.98663 -4.01488,-1.66989 -12.76664,-5.17396 -19.44836,-7.78682 -6.68173,-2.61287 -13.83895,-5.50007 -15.90494,-6.41602 -2.06599,-0.91595 -6.93735,-2.88939 -10.82522,-4.38543 -3.88788,-1.49603 -7.67748,-3.16175 -8.42134,-3.7016 -0.74387,-0.53985 -2.33436,-1.18359 -3.53443,-1.43055 -2.06876,-0.42571 -8.82264,-3.01417 -13.96339,-5.35154 -1.29596,-0.58923 -8.71827,-3.55349 -16.49402,-6.58722 -14.45066,-5.63798 -18.81302,-8.39523 -20.16464,-12.74514 -0.42118,-1.35546 -2.55095,-6.34688 -4.73283,-11.09205 -2.18187,-4.74518 -3.96705,-8.88303 -3.96705,-9.19525 0,-0.31222 -1.00734,-2.79179 -2.23855,-5.51014 -1.2312,-2.71837 -4.45614,-10.24413 -7.16652,-16.72392 -2.71039,-6.47979 -6.20945,-14.57929 -7.77568,-17.9989 -1.56623,-3.4196 -2.84769,-6.51484 -2.84769,-6.8783 0,-0.36346 -1.59049,-4.09711 -3.53443,-8.297 -1.94394,-4.19989 -3.53443,-8.03011 -3.53443,-8.51161 0,-0.4815 -1.37525,-3.72619 -3.0561,-7.21044 -1.68086,-3.48425 -3.23362,-7.16208 -3.45057,-8.17297 -0.21696,-1.01088 -1.75762,-4.61873 -3.42369,-8.01744 -1.66607,-3.39872 -3.02922,-6.65784 -3.02922,-7.2425 0,-0.58465 -1.65092,-4.39045 -3.6687,-8.45731 -2.01778,-4.06687 -3.77962,-7.96497 -3.9152,-8.66245 -0.13558,-0.69748 -1.13549,-3.25626 -2.22202,-5.68618 -4.6983,-10.50727 -5.49066,-12.66307 -4.64215,-12.63009 1.08252,0.0421 29.18613,27.11452 120.47075,116.05047 11.99326,11.68467 32.14412,31.24024 44.77971,43.45681 12.63559,12.21659 26.42938,25.71856 30.65285,30.0044 4.22348,4.28584 12.17595,12.11231 17.67216,17.39216 12.32717,11.84192 13.17916,13.62865 5.07055,10.63362 z"
     id="path3885"
     inkscape:connector-curvature="0" />
  <path
     style="fill:none;stroke-width:1.17814374"
     d="m 390.64549,336.90265 c -4.87354,-10.12732 -9.81922,-21.31752 -9.81922,-22.21714 0,-0.49761 -1.39125,-3.78733 -3.09166,-7.3105 -1.70041,-3.52316 -3.20178,-6.93591 -3.33637,-7.58389 -0.1346,-0.64798 -1.70861,-4.35913 -3.49781,-8.247 -1.78919,-3.88788 -3.37338,-7.59903 -3.52041,-8.24701 -0.14702,-0.64798 -1.95325,-4.83008 -4.01383,-9.29357 -2.06058,-4.46348 -3.74651,-8.37299 -3.74651,-8.68779 0,-0.31481 -1.78797,-4.61534 -3.97326,-9.55674 -2.18529,-4.94139 -5.96488,-13.75584 -8.39908,-19.58765 -2.4342,-5.83181 -5.35869,-12.72395 -6.49886,-15.31587 -10.82131,-24.59961 -14.05289,-32.85251 -13.84545,-35.35892 0.1334,-1.61191 0.56872,-2.93075 0.96738,-2.93075 0.39865,0 0.7479,-0.6627 0.7761,-1.47268 0.0282,-0.80997 1.25938,-4.1235 2.73595,-7.3634 1.47658,-3.23989 2.81792,-6.42088 2.98077,-7.06886 0.16285,-0.64798 1.75998,-4.35913 3.54918,-8.247 1.7892,-3.88788 3.3728,-7.59903 3.5191,-8.24701 0.14631,-0.64798 1.91276,-4.70996 3.92545,-9.02664 2.01269,-4.31667 3.65943,-8.14587 3.65943,-8.50933 0,-0.36347 1.28666,-3.4587 2.85925,-6.87831 1.57258,-3.4196 6.90009,-15.76042 11.83891,-27.424043 4.93882,-11.66363 10.5443,-24.69494 12.45663,-28.95849 1.91232,-4.26354 3.47695,-8.09322 3.47695,-8.510401 0,-0.41717 1.79796,-4.452909 3.99547,-8.968313 2.19752,-4.515401 3.69965,-8.50565 3.33808,-8.867222 -0.36158,-0.361571 0.0495,-0.657403 0.91345,-0.657403 0.86397,0 1.24013,-0.330728 0.83591,-0.734951 -0.40422,-0.404224 0.4352,-2.922506 1.86539,-5.596183 l 2.60035,-4.861231 0.30297,78.143747 c 0.16664,42.97905 0.16664,112.96079 0,155.51497 l -0.30297,77.37123 z"
     id="path3887"
     inkscape:connector-curvature="0" />
  <path
     style="fill:none;stroke-width:1.17814374"
     d="m 399.1467,341.71102 c -0.43303,-0.70067 -0.37333,-1.93665 0.13267,-2.74662 0.50601,-0.80997 1.01811,-2.00284 1.13801,-2.65082 0.11989,-0.64798 1.68188,-4.35913 3.47108,-8.24701 1.7892,-3.88787 3.39551,-7.59903 3.56959,-8.247 0.40767,-1.5175 6.49994,-15.94956 9.94669,-23.56288 1.46679,-3.23989 2.81015,-6.42088 2.98524,-7.06886 0.1751,-0.64798 2.26343,-5.68454 4.64074,-11.19237 2.37731,-5.50782 5.52845,-12.93012 7.00252,-16.49401 1.47407,-3.56388 5.13506,-12.17419 8.13553,-19.13402 3.00047,-6.95983 5.4554,-12.85085 5.4554,-13.09116 0,-0.24031 1.68593,-4.08887 3.74651,-8.55236 2.06058,-4.46348 3.86681,-8.64559 4.01384,-9.29357 0.14702,-0.64798 1.73791,-4.35913 3.53529,-8.247 1.79739,-3.88788 3.31083,-7.33395 3.3632,-7.65794 0.73837,-4.56783 3.9672,-8.65085 8.19649,-10.36488 2.65708,-1.07685 5.22867,-1.83611 5.71466,-1.68723 0.48598,0.14887 0.88361,-0.34785 0.88361,-1.10382 0,-0.75598 0.34884,-1.02566 0.7752,-0.5993 0.42637,0.42637 1.35416,0.33633 2.06176,-0.20009 1.15272,-0.87385 14.55649,-6.49552 16.01334,-6.71615 0.32399,-0.0491 2.64193,-0.98478 5.15099,-2.07937 2.50905,-1.0946 5.18638,-1.99017 5.94962,-1.99017 0.76324,0 1.89137,-0.4475 2.50695,-0.99445 0.61558,-0.54694 4.30022,-2.19439 8.18809,-3.66101 10.78386,-4.06796 24.6062,-9.66899 36.25191,-14.68984 3.73906,-1.61204 7.04703,-2.96989 7.35103,-3.01744 1.18435,-0.18525 4.92839,-1.6167 10.0026,-3.82427 2.91591,-1.26858 5.83181,-2.44107 6.47979,-2.60552 1.15739,-0.29374 2.63154,-0.88213 11.50829,-4.59336 2.44168,-1.02084 4.68806,-1.89501 4.99195,-1.94261 0.30389,-0.0476 2.98904,-1.13097 5.96701,-2.40747 2.97796,-1.27651 6.05974,-2.32092 6.8484,-2.32092 0.78865,0 1.93756,-0.4475 2.55314,-0.99444 1.99005,-1.76817 14.72909,-6.40593 15.49422,-5.64081 0.73305,0.73306 -5.05945,6.55761 -46.28708,46.54319 -11.6074,11.25772 -27.73143,26.91672 -35.83117,34.79779 -8.09973,7.88107 -24.79992,24.10219 -37.11152,36.04694 -47.84705,46.42133 -65.51086,63.62728 -84.40308,82.2153 -11.41465,11.23084 -19.9341,18.75727 -20.39251,18.01555 z"
     id="path3889"
     inkscape:connector-curvature="0" />
  <path
     style="fill:none;stroke-width:1.17814374"
     d="m 429.71923,346.36123 c -25.47541,-0.58524 -26.81523,-0.7251 -22.38473,-2.33668 2.59192,-0.9428 5.1102,-1.60551 5.59619,-1.47268 0.48598,0.13282 0.8836,-0.37703 0.8836,-1.133 0,-0.75598 0.34885,-1.02566 0.77521,-0.5993 0.42637,0.42637 1.35415,0.33633 2.06175,-0.20009 1.15272,-0.87385 14.5565,-6.49552 16.01334,-6.71614 0.32399,-0.0491 2.44465,-0.89967 4.71258,-1.89022 2.26792,-0.99056 8.6299,-3.52172 14.13772,-5.62481 5.50782,-2.10309 10.95379,-4.32072 12.10215,-4.92806 2.14802,-1.13606 15.12108,-6.20928 16.1733,-6.32472 0.32399,-0.0355 1.154,-0.42498 1.84446,-0.86542 1.07257,-0.68419 14.10962,-5.86033 15.8277,-6.28412 0.63294,-0.15613 3.70998,-1.42863 11.19236,-4.62857 2.59192,-1.10847 5.24274,-2.13807 5.89072,-2.28801 0.64798,-0.14994 3.23101,-1.1616 5.74006,-2.24813 2.50906,-1.08653 5.17445,-1.97552 5.92312,-1.97552 0.74865,0 2.40694,-0.69862 3.68508,-1.55249 2.70915,-1.80987 13.27422,-5.86388 13.83013,-5.30687 0.20836,0.20876 1.68093,-0.45891 3.27238,-1.48372 1.59145,-1.02482 5.54437,-2.78709 8.78426,-3.91616 l 5.89072,-2.05286 28.27545,11.39203 c 15.5515,6.26561 29.60086,11.95304 31.22081,12.63872 1.61994,0.68569 3.47552,1.37991 4.1235,1.54272 1.36074,0.34188 27.11323,10.62857 30.63174,12.23567 1.29595,0.59193 16.25069,6.5968 33.23274,13.34414 l 30.87646,12.26789 -26.64882,0.77556 c -29.7649,0.86624 -221.57818,0.59768 -263.66398,-0.36916 z"
     id="path3891"
     inkscape:connector-curvature="0" />
  <path
     style="fill:none;stroke-width:1.17814374"
     d="m 601.50211,548.67398 c -11.49106,-11.17764 -30.17079,-29.33578 -41.51052,-40.35142 -11.33974,-11.01564 -30.44538,-29.59035 -42.457,-41.27712 -12.01162,-11.68677 -31.64736,-30.75055 -43.63497,-42.36397 -11.98761,-11.61341 -29.74813,-28.89192 -39.46781,-38.3967 -9.71969,-9.50478 -20.7206,-20.16022 -24.44648,-23.67876 -3.72588,-3.51854 -6.77433,-7.21972 -6.77433,-8.22484 0,-1.36635 12.56014,3.18903 49.77657,18.05324 27.37712,10.93439 50.8369,20.38143 52.13286,20.99341 1.29596,0.61198 7.92302,3.30082 14.7268,5.97521 6.80378,2.67438 13.69592,5.43383 15.31587,6.13212 1.61994,0.69828 3.21044,1.32971 3.53443,1.40316 4.65517,1.05542 21.19916,8.68946 21.20233,9.78358 0.002,0.80997 0.62278,1.47268 1.37876,1.47268 0.75597,0 1.04177,0.33271 0.63512,0.73937 -0.40666,0.40666 0.46182,2.92494 1.92994,5.59618 1.46812,2.67125 6.80866,14.66486 11.86786,26.65247 5.0592,11.98761 10.72941,25.133 12.60049,29.21195 1.87108,4.07897 3.40196,7.82344 3.40196,8.32106 0,0.49761 1.39125,3.78733 3.09166,7.3105 1.70041,3.52315 3.20178,6.93591 3.33638,7.58388 0.13459,0.64798 1.7086,4.35914 3.4978,8.24701 1.7892,3.88787 3.37969,7.59903 3.53443,8.24701 0.15474,0.64798 1.74523,4.35913 3.53443,8.247 1.7892,3.88788 3.37067,7.59903 3.51437,8.24701 0.14371,0.64798 1.54736,4.09405 3.11922,7.65793 1.57187,3.56389 2.73035,6.87742 2.57441,7.3634 -0.15594,0.48599 0.24663,0.88361 0.89461,0.88361 0.64798,0 1.09398,0.39762 0.9911,0.88361 -0.10285,0.48598 0.21405,1.94393 0.70427,3.23989 2.93069,7.7477 4.19535,11.30631 4.19535,11.80528 0,2.22155 -4.85438,-1.91259 -23.19991,-19.75775 z"
     id="path3893"
     inkscape:connector-curvature="0" />
  <path
     style="fill:none;stroke-width:1.17814374"
     d="m 394.96399,510.67885 c 0,-85.85723 0.29214,-156.10405 0.64919,-156.10405 0.52701,0 4.07852,7.17936 4.66247,9.42515 0.0842,0.32399 1.62376,3.77006 3.42115,7.65794 1.79738,3.88787 3.40586,7.59903 3.57439,8.247 0.29826,1.14677 2.24036,5.69812 6.53542,15.31587 1.15749,2.59192 5.67159,13.19521 10.03133,23.56288 4.35975,10.36766 8.8729,20.97096 10.02924,23.56287 4.13349,9.26521 16.46957,38.49685 16.46957,39.02638 0,0.29683 1.59049,3.94155 3.53443,8.09937 1.94394,4.15782 3.53443,8.25907 3.53443,9.11387 0,0.85482 0.80167,2.69875 1.78149,4.09764 2.44502,3.49075 2.90352,8.94556 1.08617,12.9222 -0.83446,1.82594 -5.04924,11.80252 -9.36618,22.17018 -4.31693,10.36767 -9.12719,21.60083 -10.68945,24.96259 -1.56226,3.36178 -2.84047,6.39451 -2.84047,6.73942 0,0.34491 -1.25497,3.4262 -2.78883,6.84728 -1.53385,3.42109 -3.73315,8.75576 -4.88732,11.85483 -1.15418,3.09906 -2.55003,5.91371 -3.1019,6.25478 -0.55186,0.34107 -1.00339,1.38669 -1.00339,2.32359 0,0.93691 -1.36315,4.48423 -3.02922,7.88294 -1.66608,3.39872 -3.21321,6.97473 -3.43809,7.9467 -0.22487,0.97197 -1.61619,4.41804 -3.09181,7.65793 -1.47563,3.2399 -2.77856,6.42089 -2.89541,7.06886 -0.11685,0.64798 -1.64144,4.09405 -3.38798,7.65794 -1.74653,3.56388 -3.35951,7.27504 -3.58438,8.247 -0.22487,0.97197 -1.62143,4.41804 -3.10347,7.65794 -1.48204,3.23989 -2.58572,6.28834 -2.45263,6.77432 0.13308,0.48599 -0.37655,0.88361 -1.13253,0.88361 -0.75597,0 -1.0422,0.3323 -0.63606,0.73844 0.73613,0.73613 -2.25959,7.50857 -3.32134,7.50857 -0.30735,0 -0.55882,-70.24682 -0.55882,-156.10404 z"
     id="path3895"
     inkscape:connector-curvature="0" />
  <path
     style="fill:none;stroke-width:1.17814374"
     d="m 165.22597,572.78503 c 0,-0.50848 14.71207,-15.18176 32.69349,-32.60727 17.98142,-17.42552 42.78355,-41.52961 55.11585,-53.56464 12.3323,-12.03504 31.68331,-30.83201 43.00224,-41.77105 37.42852,-36.17233 55.71165,-53.92658 74.38847,-72.23664 18.14912,-17.79273 22.60695,-20.55443 17.56545,-10.8821 -1.34894,2.58801 -2.45263,5.20482 -2.45263,5.81513 0,0.61031 -1.29572,3.90752 -2.87937,7.32712 -1.58366,3.4196 -5.54856,12.62954 -8.81091,20.46653 -3.26234,7.83699 -6.73484,15.78946 -7.71665,17.67216 -0.98183,1.88269 -1.7884,3.82648 -1.7924,4.31953 -0.004,0.49304 -1.04257,3.14387 -2.30797,5.89072 -1.26539,2.74684 -7.16119,16.39281 -13.10177,30.32436 -5.94059,13.93155 -11.62606,27.18566 -12.63439,29.45359 -1.00832,2.26793 -1.95532,4.65367 -2.10442,5.30165 -0.14911,0.64798 -1.64027,4.22906 -3.3137,7.95796 -1.67343,3.7289 -3.18074,7.15938 -3.34956,7.62328 -0.43169,1.18617 -7.25044,8.19872 -7.9649,8.19127 -0.32399,-0.004 -2.97482,1.05966 -5.89072,2.3623 -2.91591,1.30263 -13.78428,5.67641 -24.15195,9.71949 -10.36766,4.0431 -19.91063,7.8176 -21.20659,8.38781 -7.07363,3.1123 -15.39091,6.63126 -15.90494,6.72923 -0.70697,0.13474 -0.90274,0.2113 -27.68637,10.82729 -11.66363,4.623 -22.26692,8.87784 -23.56288,9.4552 -8.47185,3.77426 -13.54865,5.6909 -13.54865,5.115 0,-0.36689 -0.66914,-0.11169 -1.48699,0.56701 -1.39886,1.16096 -14.67915,6.56481 -16.38152,6.66578 -0.43199,0.0256 -1.18306,0.4442 -1.66904,0.93019 -1.15706,1.15705 -2.84718,1.13278 -2.84718,-0.0409 z"
     id="path3897"
     inkscape:connector-curvature="0" />
  <path
     style="fill:none;stroke-width:1.17814374"
     d="m 165.22597,572.78503 c 0,-0.50848 14.71207,-15.18176 32.69349,-32.60727 17.98142,-17.42552 42.78355,-41.52961 55.11585,-53.56464 12.3323,-12.03504 31.68331,-30.83201 43.00224,-41.77105 37.42852,-36.17233 55.71165,-53.92658 74.38847,-72.23664 18.14912,-17.79273 22.60695,-20.55443 17.56545,-10.8821 -1.34894,2.58801 -2.45263,5.20482 -2.45263,5.81513 0,0.61031 -1.29572,3.90752 -2.87937,7.32712 -1.58366,3.4196 -5.54856,12.62954 -8.81091,20.46653 -3.26234,7.83699 -6.73484,15.78946 -7.71665,17.67216 -0.98183,1.88269 -1.7884,3.82648 -1.7924,4.31953 -0.004,0.49304 -1.04257,3.14387 -2.30797,5.89072 -1.26539,2.74684 -7.16119,16.39281 -13.10177,30.32436 -5.94059,13.93155 -11.62606,27.18566 -12.63439,29.45359 -1.00832,2.26793 -1.95532,4.65367 -2.10442,5.30165 -0.14911,0.64798 -1.64027,4.22906 -3.3137,7.95796 -1.67343,3.7289 -3.18074,7.15938 -3.34956,7.62328 -0.43169,1.18617 -7.25044,8.19872 -7.9649,8.19127 -0.32399,-0.004 -2.97482,1.05966 -5.89072,2.3623 -2.91591,1.30263 -13.78428,5.67641 -24.15195,9.71949 -10.36766,4.0431 -19.91063,7.8176 -21.20659,8.38781 -7.07363,3.1123 -15.39091,6.63126 -15.90494,6.72923 -0.70697,0.13474 -0.90274,0.2113 -27.68637,10.82729 -11.66363,4.623 -22.26692,8.87784 -23.56288,9.4552 -8.47185,3.77426 -13.54865,5.6909 -13.54865,5.115 0,-0.36689 -0.66914,-0.11169 -1.48699,0.56701 -1.39886,1.16096 -14.67915,6.56481 -16.38152,6.66578 -0.43199,0.0256 -1.18306,0.4442 -1.66904,0.93019 -1.15706,1.15705 -2.84718,1.13278 -2.84718,-0.0409 z"
     id="path3899"
     inkscape:connector-curvature="0" />
  <path
     style="fill:none;stroke-width:1.17814374"
     d="m 394.96399,510.67885 c 0,-85.85723 0.29214,-156.10405 0.64919,-156.10405 0.52701,0 4.07852,7.17936 4.66247,9.42515 0.0842,0.32399 1.62376,3.77006 3.42115,7.65794 1.79738,3.88787 3.40586,7.59903 3.57439,8.247 0.29826,1.14677 2.24036,5.69812 6.53542,15.31587 1.15749,2.59192 5.67159,13.19521 10.03133,23.56288 4.35975,10.36766 8.8729,20.97096 10.02924,23.56287 4.13349,9.26521 16.46957,38.49685 16.46957,39.02638 0,0.29683 1.59049,3.94155 3.53443,8.09937 1.94394,4.15782 3.53443,8.25907 3.53443,9.11387 0,0.85482 0.80167,2.69875 1.78149,4.09764 2.44502,3.49075 2.90352,8.94556 1.08617,12.9222 -0.83446,1.82594 -5.04924,11.80252 -9.36618,22.17018 -4.31693,10.36767 -9.12719,21.60083 -10.68945,24.96259 -1.56226,3.36178 -2.84047,6.39451 -2.84047,6.73942 0,0.34491 -1.25497,3.4262 -2.78883,6.84728 -1.53385,3.42109 -3.73315,8.75576 -4.88732,11.85483 -1.15418,3.09906 -2.55003,5.91371 -3.1019,6.25478 -0.55186,0.34107 -1.00339,1.38669 -1.00339,2.32359 0,0.93691 -1.36315,4.48423 -3.02922,7.88294 -1.66608,3.39872 -3.21321,6.97473 -3.43809,7.9467 -0.22487,0.97197 -1.61619,4.41804 -3.09181,7.65793 -1.47563,3.2399 -2.77856,6.42089 -2.89541,7.06886 -0.11685,0.64798 -1.64144,4.09405 -3.38798,7.65794 -1.74653,3.56388 -3.35951,7.27504 -3.58438,8.247 -0.22487,0.97197 -1.62143,4.41804 -3.10347,7.65794 -1.48204,3.23989 -2.58572,6.28834 -2.45263,6.77432 0.13308,0.48599 -0.37655,0.88361 -1.13253,0.88361 -0.75597,0 -1.0422,0.3323 -0.63606,0.73844 0.73613,0.73613 -2.25959,7.50857 -3.32134,7.50857 -0.30735,0 -0.55882,-70.24682 -0.55882,-156.10404 z"
     id="path3901"
     inkscape:connector-curvature="0" />
  <path
     style="fill:none;stroke-width:1.17814374"
     d="m 394.96399,510.67885 c 0,-85.85723 0.29214,-156.10405 0.64919,-156.10405 0.52701,0 4.07852,7.17936 4.66247,9.42515 0.0842,0.32399 1.62376,3.77006 3.42115,7.65794 1.79738,3.88787 3.40586,7.59903 3.57439,8.247 0.29826,1.14677 2.24036,5.69812 6.53542,15.31587 1.15749,2.59192 5.67159,13.19521 10.03133,23.56288 4.35975,10.36766 8.8729,20.97096 10.02924,23.56287 4.13349,9.26521 16.46957,38.49685 16.46957,39.02638 0,0.29683 1.59049,3.94155 3.53443,8.09937 1.94394,4.15782 3.53443,8.25907 3.53443,9.11387 0,0.85482 0.80167,2.69875 1.78149,4.09764 2.44502,3.49075 2.90352,8.94556 1.08617,12.9222 -0.83446,1.82594 -5.04924,11.80252 -9.36618,22.17018 -4.31693,10.36767 -9.12719,21.60083 -10.68945,24.96259 -1.56226,3.36178 -2.84047,6.39451 -2.84047,6.73942 0,0.34491 -1.25497,3.4262 -2.78883,6.84728 -1.53385,3.42109 -3.73315,8.75576 -4.88732,11.85483 -1.15418,3.09906 -2.55003,5.91371 -3.1019,6.25478 -0.55186,0.34107 -1.00339,1.38669 -1.00339,2.32359 0,0.93691 -1.36315,4.48423 -3.02922,7.88294 -1.66608,3.39872 -3.21321,6.97473 -3.43809,7.9467 -0.22487,0.97197 -1.61619,4.41804 -3.09181,7.65793 -1.47563,3.2399 -2.77856,6.42089 -2.89541,7.06886 -0.11685,0.64798 -1.64144,4.09405 -3.38798,7.65794 -1.74653,3.56388 -3.35951,7.27504 -3.58438,8.247 -0.22487,0.97197 -1.62143,4.41804 -3.10347,7.65794 -1.48204,3.23989 -2.58572,6.28834 -2.45263,6.77432 0.13308,0.48599 -0.37655,0.88361 -1.13253,0.88361 -0.75597,0 -1.0422,0.3323 -0.63606,0.73844 0.73613,0.73613 -2.25959,7.50857 -3.32134,7.50857 -0.30735,0 -0.55882,-70.24682 -0.55882,-156.10404 z"
     id="path3905"
     inkscape:connector-curvature="0" />
  <path
     style="fill:none;stroke-width:1.17814374"
     d="m 392.7014,733.08544 c -0.82048,-1.79952 -18.9736,-44.35962 -40.34027,-94.578 -21.36669,-50.21838 -39.52419,-91.99877 -40.35003,-92.84531 -1.87037,-1.91728 -0.47409,-2.44314 -112.00531,42.18339 -47.12512,18.85596 -86.11311,34.12501 -86.63997,33.93121 -1.17624,-0.43266 0.20161,-3.80899 33.5587,-82.23336 38.43409,-90.36064 45.39876,-107.14193 45.39876,-109.38771 0,-1.48887 -5.46798,-4.18921 -21.50113,-10.61826 C 52.675622,372.16248 -3.2485811,349.39142 -3.2485811,348.65982 c 0,-1.25352 10.5320381,-5.63538 94.8405711,-39.45838 101.81769,-40.84735 100.73129,-40.38243 100.73129,-43.10762 0,-1.24057 -14.5254,-36.31428 -32.27864,-77.94157 C 121.67084,98.174527 112.037,75.134527 112.56653,74.605007 c 0.21745,-0.21746 40.12097,15.55734 88.67449,35.055123 48.55351,19.49778 93.12357,37.21978 99.04456,39.38223 l 10.76546,3.93172 4.11938,-9.06154 c 4.36356,-9.59869 76.4915,-178.233284 77.95091,-182.248667 0.76672,-2.109556 1.08278,-1.919488 3.01838,1.81515 2.16612,4.179444 73.18504,170.892527 77.52053,181.975277 1.54487,3.94913 3.07078,6.00716 4.62958,6.24403 2.45482,0.37301 34.28503,-11.9436 136.24539,-52.719783 34.25897,-13.70091 62.42328,-24.75373 62.58735,-24.56181 0.16406,0.19191 -18.19926,43.492503 -40.80741,96.223513 -38.03875,88.72123 -40.95043,95.98919 -39.02447,97.41071 2.1894,1.61598 13.632,6.3045 113.07765,46.33265 69.90132,28.13618 81.63009,33.05697 81.63009,34.24779 0,1.00995 -4.56763,2.88882 -109.25052,44.93946 -44.86027,18.02016 -82.691,33.367 -84.06827,34.1041 -1.96823,1.05336 -2.35876,2.06705 -1.82484,4.73669 0.37361,1.86808 15.48923,38.00293 33.59027,80.29967 41.15014,96.1557 46.26678,108.34517 45.71185,108.90011 -0.5886,0.5886 -14.25377,-4.73181 -95.04621,-37.00543 -96.45956,-38.53205 -102.48491,-40.83599 -103.67054,-39.64092 -0.57735,0.58194 -19.17759,43.47125 -41.33387,95.30958 -22.15627,51.83832 -40.65065,94.6635 -41.09861,95.16706 -0.44797,0.50355 -1.48579,-0.55678 -2.30628,-2.35628 z m 39.32133,-146.14352 32.61095,-76.89562 -29.42061,-69.19421 c -36.4508,-85.72852 -35.76597,-84.08424 -35.23983,-84.61038 0.23871,-0.23871 43.87566,41.74099 96.971,93.28823 115.73375,112.35933 131.57953,127.44113 132.13762,125.76685 0.23562,-0.70683 -1.12713,-5.1968 -3.0283,-9.97773 -4.90359,-12.33115 -51.00561,-120.15536 -58.62581,-137.11504 l -6.3544,-14.14251 -80.40385,-32.39417 -80.40386,-32.39418 161.01336,-0.58907 c 88.55735,-0.32399 161.39874,-0.97463 161.86978,-1.44588 1.24385,-1.2444 -6.45169,-4.49575 -87.2411,-36.85905 l -73.03159,-29.25562 -10.61661,3.64171 c -5.83913,2.00294 -41.34454,15.88586 -78.90091,30.85092 -37.55637,14.96507 -68.77371,27.04608 -69.37186,26.84669 -0.59815,-0.19937 35.9616,-36.34421 81.2439,-80.32185 98.77955,-95.93356 143.00584,-139.55844 143.00584,-141.06122 0,-1.66428 0.76379,-1.95364 -85.5597,32.41252 l -80.25804,31.95146 -32.78448,77.45774 c -18.03147,42.60176 -32.87318,77.34272 -32.98157,77.20212 -0.1084,-0.14059 -0.59676,-64.93571 -1.08527,-143.98915 -0.4885,-79.05345 -1.2509,-149.300271 -1.69423,-156.10405 l -0.80604,-12.370509 -4.7863,10.014221 c -2.63246,5.507822 -18.11781,41.136655 -34.41188,79.175198 l -29.62559,69.16097 6.97923,16.84352 c 3.83858,9.26393 14.49412,34.33895 23.67899,55.72226 19.48812,45.3703 34.17171,80.36028 34.17171,81.42881 0,1.31173 -9.0867,-7.39679 -107.64483,-103.16488 C 176.81061,135.16376 160.59063,119.65426 159.76206,120.48283 c -1.02438,1.02438 3.94442,13.27543 35.45307,87.41308 l 31.54496,74.22306 73.20412,29.3933 c 40.26227,16.16631 75.81515,30.52871 79.0064,31.91642 l 5.80226,2.52313 -159.34148,0.84685 c -87.63784,0.46575 -160.432407,1.25038 -161.765731,1.74361 -1.898157,0.70218 1.63588,2.58215 16.285482,8.66327 28.579069,11.86332 100.904099,40.94367 125.331719,50.3932 20.87551,8.07545 21.99461,8.37248 26.50823,7.03569 2.59192,-0.76764 38.31822,-14.87581 79.39178,-31.35149 41.07356,-16.47568 74.89393,-29.74105 75.15638,-29.47859 0.26244,0.26244 -50.70608,50.19485 -113.26341,110.96088 -62.55733,60.76604 -113.74059,110.70963 -113.74059,110.98575 0,0.9933 7.84248,-1.25252 18.25457,-5.2275 5.83548,-2.22777 41.25495,-16.27712 78.70996,-31.22078 l 68.09999,-27.17028 3.33891,-6.61752 c 3.15884,-6.26062 28.19207,-63.59049 53.81906,-123.25373 l 11.63904,-27.0973 0.60403,157.87125 c 0.33223,86.8292 0.75328,158.13634 0.93568,158.46033 0.70468,1.25169 5.72218,-10.12642 37.28624,-84.55354 z"
     id="path3907"
     inkscape:connector-curvature="0" />
  <path
     style="opacity:0.02000002;fill:#800000;fill-opacity:0.70854271;stroke-width:1.17814374"
     d="m 394.94701,510.08977 c 0,-86.5052 0.14012,-121.89369 0.31138,-78.64109 0.17126,43.2526 0.17126,114.02959 0,157.28219 -0.17126,43.2526 -0.31138,7.86411 -0.31138,-78.6411 z"
     id="path4730"
     inkscape:connector-curvature="0" />
  <path
     style="opacity:0;fill:#ffffff;fill-opacity:0.70854271;stroke-width:1.17814374"
     d="m 619.10852,565.75707 c -2.96714,-3.07791 -17.76277,-17.52489 -32.87919,-32.10442 -15.1164,-14.57953 -36.46667,-35.25595 -47.44501,-45.94761 -10.97835,-10.69165 -28.74314,-27.95366 -39.47731,-38.36001 -10.73417,-10.40636 -28.79455,-27.9483 -40.13418,-38.9821 -11.33964,-11.0338 -27.16778,-26.37692 -35.17365,-34.09582 -13.96605,-13.46544 -22.15146,-22.49404 -21.22474,-23.41115 0.39301,-0.38894 9.88722,3.22627 17.51964,6.67114 1.61995,0.73116 3.47553,1.45608 4.12351,1.61094 1.29207,0.30879 26.1481,10.25811 31.80988,12.73279 1.94393,0.84967 25.92797,10.46879 53.29786,21.37583 35.93325,14.31957 49.95225,20.42587 50.44283,21.97154 0.37366,1.17731 1.32127,2.8064 2.10581,3.62021 0.78454,0.81381 5.33524,10.75754 10.11268,22.09717 4.77743,11.33964 10.25395,24.06359 12.17004,28.27545 1.91608,4.21187 3.6035,8.1881 3.74982,8.83608 0.1463,0.64798 1.7299,4.35913 3.5191,8.24701 1.7892,3.88787 3.36247,7.59902 3.49618,8.247 0.13369,0.64798 1.80708,4.62422 3.71862,8.83608 1.91155,4.21186 3.49821,7.92302 3.52591,8.24701 0.0277,0.32399 1.26993,3.23989 2.76052,6.47979 1.49059,3.23989 2.83705,6.42088 2.99215,7.06886 0.15509,0.64798 1.74586,4.35913 3.53506,8.247 1.7892,3.88788 3.38633,7.59903 3.54918,8.24701 0.16285,0.64798 1.43891,3.74038 2.83569,6.87201 1.39677,3.13161 2.53959,6.44514 2.53959,7.3634 0,0.91824 0.61853,1.66953 1.37451,1.66953 0.75597,0 1.02566,0.34885 0.59929,0.77521 -0.42636,0.42637 -0.31086,1.35416 0.25667,2.06175 1.12941,1.40815 2.96775,8.94448 2.18184,8.94448 -0.26814,0 -2.91517,-2.51828 -5.8823,-5.59618 z"
     id="path4740"
     inkscape:connector-curvature="0" />
  <path
     style="opacity:0;fill:#ffffff;fill-opacity:0.70854271;stroke-width:1.17814374"
     d="m 204.69378,405.95948 c -11.33963,-4.65922 -46.28964,-18.78952 -77.66669,-31.40067 -50.600831,-20.33762 -56.593362,-23.01353 -53.01647,-23.67395 3.327887,-0.61444 2.950068,-0.73616 -2.161717,-0.69643 -3.406938,0.0265 -6.543746,-0.30115 -6.970684,-0.72809 -0.426938,-0.42694 72.872461,-0.7555 162.887541,-0.73014 148.54594,0.0419 163.28291,0.21408 159.5403,1.8645 -2.26793,1.00011 -29.57141,12.07075 -60.6744,24.60143 -31.103,12.53069 -65.82878,26.5339 -77.16841,31.11827 -11.33964,4.58436 -21.41277,8.28597 -22.38474,8.2258 -0.97196,-0.0602 -11.04509,-3.92149 -22.38473,-8.58072 z"
     id="path4756"
     inkscape:connector-curvature="0" />
  <path
     style="opacity:0;fill:#ffffff;fill-opacity:0.70854271;stroke-width:1.17814374"
     d="m 586.41235,533.95011 c -22.35528,-21.72701 -48.59843,-47.22 -58.31812,-56.65109 -9.71968,-9.43108 -26.42339,-25.65997 -37.11935,-36.06419 -10.69595,-10.40422 -35.52431,-34.54223 -55.17413,-53.64003 -19.64982,-19.0978 -35.25107,-34.88189 -34.66945,-35.07576 0.58162,-0.19388 30.71163,11.54525 66.95557,26.08696 90.48572,36.30444 88.44085,35.46598 91.05018,37.33343 2.31008,1.65328 69.33252,156.26436 68.18118,157.28412 -0.14296,0.12662 -18.55061,-17.54642 -40.90588,-39.27344 z"
     id="path4762"
     inkscape:connector-curvature="0" />
  <path
     style="opacity:1;fill:#fffff6;fill-opacity:1;stroke:none;stroke-width:0.1494657"
     d="m 49.64877,99.163427 c -0.211932,-0.49038 -2.362107,-5.67266 -4.778154,-11.51619 -5.391279,-13.03936 -5.100738,-12.37 -5.369154,-12.37 -0.121428,0 -5.570031,2.21174 -12.108009,4.915 -6.53799,2.70319 -12.042792,4.96386 -12.232931,5.02366 -0.310977,0.0978 -0.334875,0.0729 -0.237804,-0.24775 0.05935,-0.19604 2.274386,-5.61561 4.922311,-12.04351 2.647943,-6.42784 4.849775,-11.833082 4.892966,-12.011656 0.0432,-0.178627 0.03265,-0.401284 -0.02345,-0.494899 C 24.638219,60.29075 6.6882012,52.750451 0.76171005,50.35616 L 0,50.048445 11.327456,45.362251 c 13.987247,-5.78663 13.525156,-5.587434 13.525156,-5.830504 0,-0.204967 -1.754733,-4.509433 -7.114725,-17.453049 -1.659276,-4.006916 -2.99661,-7.306191 -2.97186,-7.331716 0.02477,-0.02553 5.500168,2.208249 12.167593,4.963959 6.667418,2.755695 12.252299,5.030484 12.410874,5.055014 0.374389,0.05797 0.107863,0.655538 5.589117,-12.529587 C 47.472299,6.129542 49.667378,0.878113 49.811565,0.566525 L 50.073721,0 51.312098,2.994992 c 0.681108,1.647247 2.848397,6.893792 4.816186,11.658991 3.548263,8.592398 4.260489,10.232518 4.443522,10.232518 0.0522,0 5.545797,-2.253888 12.208008,-5.008702 6.662207,-2.754794 12.182069,-5.008718 12.266348,-5.008718 0.08429,0 0.153242,0.07208 0.153242,0.160184 0,0.0881 -2.251966,5.578533 -5.004371,12.200962 -2.752391,6.622438 -5.004357,12.143476 -5.004357,12.268955 0,0.144977 0.523182,0.454677 1.435069,0.849335 1.954765,0.846043 22.685145,9.364123 23.145219,9.510279 0.468326,0.148795 1.461696,-0.289013 -11.701402,5.157242 -12.567012,5.199635 -12.792429,5.297435 -12.847189,5.571518 -0.02306,0.11535 2.245475,5.721411 5.041158,12.457941 2.795684,6.7366 5.083066,12.276 5.083066,12.30979 0,0.0338 -5.530458,-2.2199 -12.289912,-5.00828 -6.759446,-2.78836 -12.381259,-5.06977 -12.492905,-5.06977 -0.116264,0 -0.467995,0.63234 -0.823155,1.47984 -0.341103,0.81394 -2.64128,6.36337 -5.111511,12.33208 -2.470233,5.96872 -4.514653,10.87777 -4.543166,10.90903 -0.0285,0.0312 -0.22523,-0.34438 -0.437178,-0.83476 z m 0.835385,-8.13905 c 0.571539,-1.14747 8.221533,-19.91045 8.221533,-20.16487 0,-0.13542 -0.899479,-2.4241 -1.998842,-5.08581 -3.289028,-7.963353 -5.949274,-14.481899 -5.949274,-14.577904 0,-0.162383 1.264227,1.083447 13.026085,12.836844 14.528029,14.51756 15.475583,15.44756 15.604111,15.31501 C 79.557111,79.173057 71.295353,59.168993 70.848643,58.672035 70.668087,58.471157 66.798187,56.79116 60.83991,54.327021 l -9.714372,-4.01747 20.115656,-0.07587 c 11.063588,-0.04174 20.16362,-0.125425 20.222279,-0.185938 0.128557,-0.132636 -0.07694,-0.225416 -6.043279,-2.729751 -8.491822,-3.564314 -14.250408,-5.887522 -14.593702,-5.887522 -0.271767,0 -2.482496,0.884617 -11.798929,4.721477 -4.234905,1.744044 -7.741764,3.171059 -7.793004,3.171059 -0.163507,0 0.676589,-0.854892 14.020963,-14.26745 14.409317,-14.482886 14.299597,-14.370433 14.160744,-14.513631 -0.08146,-0.08399 -15.510414,6.224686 -19.533067,7.9868 -1.22997,0.53877 -1.258065,0.563005 -1.663107,1.433674 -0.334913,0.719863 -6.158767,14.734613 -7.497832,18.043026 l -0.3575,0.88328 -0.09629,-20.074049 C 50.2155,17.773965 50.115476,8.682182 50.046189,8.610732 49.907305,8.467517 48.988957,10.57224 44.401584,21.547369 c -2.230678,5.336816 -3.056998,7.470261 -3.004617,7.757519 0.03974,0.217978 1.109667,2.915843 2.377631,5.99531 4.459035,10.829558 5.515339,13.461917 5.435178,13.544533 -0.04451,0.04592 -0.757635,-0.600712 -1.584762,-1.43699 -5.709497,-5.772522 -25.662763,-25.699996 -26.346643,-26.312589 -0.306285,-0.27437 -0.589188,-0.46556 -0.628647,-0.424867 -0.181534,0.187202 8.119576,20.275154 8.536732,20.658133 0.396709,0.364211 0.927881,0.595831 10.532073,4.59356 4.492896,1.870136 8.364236,3.49152 8.602986,3.603023 0.367868,0.17189 -1.607717,0.218271 -12.952493,0.303876 -7.362611,0.05554 -16.379766,0.101089 -20.038096,0.101136 -5.9318556,8.3e-5 -7.2974138,0.0717 -6.6312788,0.347723 0.1007262,0.04175 1.6402938,0.704797 3.4212608,1.473415 4.433875,1.913522 15.765275,6.60318 16.51395,6.834493 0.728611,0.225139 -0.116466,0.537817 11.792968,-4.363193 4.559197,-1.876248 8.319509,-3.380291 8.356266,-3.342401 0.06652,0.06857 -3.899651,4.087231 -18.33837,18.581117 -8.451779,8.48403 -9.802997,9.87334 -9.703187,9.97622 0.08552,0.0882 4.350717,-1.60755 13.542715,-5.38428 l 7.08638,-2.91159 0.620079,-1.38514 c 0.341042,-0.76182 2.237611,-5.26769 4.214612,-10.013058 l 3.594549,-8.628042 0.08647,20.23916 c 0.04757,11.13147 0.09726,20.25617 0.110398,20.27704 0.07672,0.12181 0.199955,-0.032 0.486414,-0.6071 z"
     id="path4776"
     inkscape:connector-curvature="0" />
</svg>
